<svg width="3696" height="932" xmlns="http://www.w3.org/2000/svg" xmlns:xlink="http://www.w3.org/1999/xlink" overflow="hidden"><defs><clipPath id="clip0"><rect x="309" y="578" width="3696" height="932"/></clipPath></defs><g clip-path="url(#clip0)" transform="translate(-309 -578)"><rect x="326" y="750" width="2176" height="733" stroke="#7F7F7F" stroke-width="27.5" stroke-linejoin="round" stroke-miterlimit="10"/><text fill="#C586C0" font-family="Consolas,Consolas_MSFontService,sans-serif" font-weight="400" font-size="83" transform="matrix(1 0 0 1 358.614 845)">#include<tspan fill="#CE9178" font-size="83" x="407.344" y="0">&lt;</tspan><tspan fill="#CE9178" font-size="83" x="452.604" y="0">stdio.h</tspan><tspan fill="#CE9178" font-size="83" x="769.427" y="0">&gt;</tspan><tspan fill="#569CD6" font-size="83" x="0" y="198">int</tspan><tspan fill="#DCDCAA" font-size="83" x="181.042" y="198">main</tspan><tspan fill="#D4D4D4" font-size="83" x="362.083" y="198">(){</tspan><tspan fill="#6A9955" font-size="83" x="181.042" y="297">//</tspan><tspan fill="#6A9955" font-size="83" x="316.823" y="297">Se</tspan><tspan fill="#6A9955" font-size="83" x="452.604" y="297">mostrará</tspan><tspan fill="#6A9955" font-size="83" x="859.948" y="297">Hola</tspan><tspan fill="#6A9955" font-size="83" x="1086.25" y="297">Mundo!</tspan><tspan fill="#6A9955" font-size="83" x="1403.07" y="297">en</tspan><tspan fill="#6A9955" font-size="83" x="1538.85" y="297">la</tspan><tspan fill="#6A9955" font-size="83" x="1674.64" y="297">pantalla</tspan><tspan fill="#DCDCAA" font-size="83" x="181.042" y="396">printf</tspan><tspan fill="#D4D4D4" font-size="83" x="452.604" y="396">(“Hola</tspan><tspan fill="#D4D4D4" font-size="83" x="769.427" y="396">Mundo!</tspan><tspan fill="#D4D4D4" font-size="83" x="1040.99" y="396">\</tspan><tspan fill="#D4D4D4" font-size="83" x="1086.25" y="396">n”);</tspan><tspan font-size="83" x="181.042" y="495">return</tspan><tspan fill="#B5CEA8" font-size="83" x="497.865" y="495">0</tspan><tspan fill="#D4D4D4" font-size="83" x="543.125" y="495">;</tspan><tspan fill="#D4D4D4" font-size="83" x="0" y="594">}</tspan></text><path d="M2590.5 1032.75 2890 1032.75 2890 948.5 3058.5 1117 2890 1285.5 2890 1201.25 2590.5 1201.25Z" stroke="#2F528F" stroke-width="4.58333" stroke-miterlimit="8" fill="#0070C0" fill-rule="evenodd"/><text fill="#FFFFFF" font-family="Calibri,Calibri_MSFontService,sans-serif" font-weight="400" font-size="83" transform="matrix(1 0 0 1 2630.44 1144)">Compilar</text><rect x="3147" y="750" width="844" height="733" stroke="#7F7F7F" stroke-width="27.5" stroke-linejoin="round" stroke-miterlimit="10"/><text fill="#B5CEA8" font-family="Consolas,Consolas_MSFontService,sans-serif" font-weight="400" font-size="83" transform="matrix(1 0 0 1 3179.51 845)">01010101001001001<tspan font-size="83" x="0" y="99">10101010101001010</tspan><tspan font-size="83" x="0" y="198">10101010101111100</tspan><tspan font-size="83" x="0" y="297">10010110100100000</tspan><tspan font-size="83" x="0" y="396">11010010010001010</tspan><tspan font-size="83" x="0" y="495">10010101001001110</tspan><tspan font-size="83" x="0" y="594">10010101001001110</tspan><tspan fill="#000000" font-family="Calibri,Calibri_MSFontService,sans-serif" font-weight="700" font-size="83" x="-2500.38" y="-164">Código Fuente (“Entendible” por humanos)</tspan><tspan fill="#000000" font-family="Calibri,Calibri_MSFontService,sans-serif" font-weight="700" font-size="83" x="81.8499" y="-164">Código Máquina</tspan></text></g></svg>